<?xml version="1.0" encoding="UTF-8"?>
<!DOCTYPE svg PUBLIC "-//W3C//DTD SVG 1.0//EN" "http://www.w3.org/TR/2001/REC-SVG-20010904/DTD/svg10.dtd">
<!-- Creator: CorelDRAW X6 -->
<svg xmlns="http://www.w3.org/2000/svg" xml:space="preserve" width="31.4727mm" height="14.8378mm" version="1.0" shape-rendering="geometricPrecision" text-rendering="geometricPrecision" image-rendering="optimizeQuality" fill-rule="evenodd" clip-rule="evenodd"
viewBox="0 0 916 432"
 xmlns:xlink="http://www.w3.org/1999/xlink">
 <g id="Layer_x0020_1">
  <metadata id="CorelCorpID_0Corel-Layer"/>
  <path fill="#D9DADA" d="M879 8l-533 0 0 424 -310 0c-21,0 -38,-17 -38,-38l0 -349c0,-21 17,-38 38,-38z"/>

  <path fill="#D9DADA" d="M879 8l-533 0 0 424 533 0c21,0 38,-17 38,-38l0 -349c0,-21 -17,-38 -38,-38z"/>
<!--
  <path fill="#D9DADA" d="M879 0l-533 0 0 424 533 0c21,0 38,-17 38,-38l0 -349c0,-21 -17,-38 -38,-38z"/>
-->
 </g>
</svg>
