<?xml version="1.0" encoding="UTF-8"?>
<!DOCTYPE svg PUBLIC "-//W3C//DTD SVG 1.0//EN" "http://www.w3.org/TR/2001/REC-SVG-20010904/DTD/svg10.dtd">
<!-- Creator: CorelDRAW X7 -->
<svg xmlns="http://www.w3.org/2000/svg" xml:space="preserve" width="202.318mm" height="48.0482mm" version="1.0" shape-rendering="geometricPrecision" text-rendering="geometricPrecision" image-rendering="optimizeQuality" fill-rule="evenodd" clip-rule="evenodd"
viewBox="0 0 20106 4775"
 xmlns:xlink="http://www.w3.org/1999/xlink">
 <g id="Camada_x0020_1">
  <metadata id="CorelCorpID_0Corel-Layer"/>
  <g id="_478916768">
   <g>
    <path fill="#D92929" fill-rule="nonzero" d="M5703 732l-219 -719 -226 0 -220 719 205 0 21 -84 214 0 21 84 204 0zm-335 -553l54 128 139 12 -106 91 32 135 -119 -72 -119 72 32 -135 -106 -91 139 -12 54 -128zm1073 553l0 -719 -249 0 -104 345 -104 -345 -249 0 0 719 180 0 0 -432 133 432 80 0 133 -432 0 432 180 0zm697 0l-220 -719 -226 0 -219 719 204 0 21 -84 214 0 22 84 204 0zm-274 -273l-118 0 59 -232 59 232zm760 273l0 -189 -233 0 227 -358 0 -172 -464 0 0 190 226 0 -226 357 0 172 470 0zm260 0l0 -719 -180 0 0 719 180 0zm668 0l0 -719 -180 0 0 341 -206 -341 -186 0 0 719 180 0 0 -364 219 364 173 0zm391 13c39,0 75,-6 108,-18 33,-12 63,-28 90,-50 28,-22 52,-48 74,-77l0 -295 -289 0 0 190 110 0 0 26c-6,6 -15,11 -25,16 -10,5 -21,9 -33,12 -11,3 -23,4 -35,4 -21,0 -41,-4 -58,-14 -18,-9 -33,-22 -46,-38 -13,-16 -23,-35 -29,-57 -7,-22 -11,-45 -11,-71 0,-25 4,-48 11,-70 6,-22 16,-41 29,-57 13,-17 28,-29 46,-39 17,-9 37,-13 58,-14 18,1 34,5 49,14 14,8 27,19 37,33 10,14 18,28 24,43l152 -94c-10,-23 -22,-46 -37,-68 -15,-22 -34,-43 -55,-61 -21,-17 -46,-32 -74,-42 -28,-11 -60,-16 -96,-17 -36,0 -70,6 -103,17 -32,11 -62,27 -89,48 -28,21 -51,47 -71,77 -20,30 -36,65 -47,103 -11,39 -16,81 -17,127 1,46 6,89 17,127 11,39 27,73 47,104 20,30 43,55 71,76 27,22 57,38 89,49 33,11 67,16 103,16z"/>
    <path fill="#D92929" fill-rule="nonzero" d="M9429 648l-1 0 -119 -634 -55 0 141 717 65 0 121 -638 2 0 117 638 68 0 145 -717 -51 0 -125 629 -1 0 -118 -629 -69 0 -120 634zm698 -264c18,0 34,3 46,10 12,7 22,16 29,27 7,10 12,23 15,35 3,14 5,26 6,39 1,13 1,24 1,34 -1,10 -1,18 -1,24 0,7 1,18 1,31 0,13 0,27 1,42 0,15 1,30 1,45 1,14 2,27 3,38 0,10 1,18 2,22l50 0c-1,-14 -2,-27 -4,-41 -1,-14 -2,-28 -2,-42 0,-43 0,-79 -1,-109 0,-30 -1,-55 -3,-75 -2,-20 -5,-37 -9,-49 -3,-12 -8,-22 -15,-29 -6,-7 -14,-13 -24,-17 -9,-3 -21,-7 -35,-10l0 -2c20,-6 36,-14 48,-24 12,-10 21,-22 27,-36 6,-15 11,-31 13,-50 2,-18 3,-39 3,-61 0,-32 -2,-58 -6,-80 -4,-22 -12,-40 -22,-53 -11,-14 -25,-24 -43,-30 -19,-6 -42,-9 -70,-9l-161 0 0 717 52 0 0 -347 98 0zm-98 -316l106 0c15,-1 28,1 40,4 11,3 21,9 29,17 7,9 13,20 17,36 4,15 6,35 6,60 0,30 -2,54 -7,73 -4,19 -11,34 -21,44 -9,11 -21,18 -35,22 -15,4 -32,6 -51,6l-84 0 0 -262zm362 -54l0 717 52 0 0 -717 -52 0zm475 182c0,-26 -2,-51 -6,-74 -4,-24 -12,-45 -22,-63 -11,-18 -26,-32 -45,-43 -19,-10 -44,-16 -75,-16 -32,0 -59,6 -83,18 -24,12 -43,31 -56,57 -13,26 -19,60 -19,101 0,14 0,27 1,40 2,12 4,25 8,36 4,12 10,25 19,37 9,12 20,26 35,40 15,14 33,30 56,47 21,15 40,29 57,42 17,13 31,26 43,39 12,14 21,29 27,46 7,17 10,37 10,61 0,42 -9,73 -25,95 -17,22 -43,32 -77,33 -20,-1 -38,-4 -51,-10 -14,-6 -24,-14 -32,-24 -8,-11 -14,-23 -18,-37 -3,-14 -6,-28 -7,-44 -1,-16 -1,-31 -1,-47l-54 0c-2,70 10,123 36,160 26,37 68,55 125,55 51,0 90,-15 116,-47 26,-32 40,-79 40,-144 0,-27 -3,-51 -9,-70 -5,-19 -12,-36 -22,-49 -9,-14 -20,-26 -33,-37 -12,-10 -25,-21 -39,-31 -14,-10 -29,-22 -43,-34 -14,-12 -26,-22 -37,-30 -12,-8 -22,-16 -31,-24 -9,-8 -16,-16 -23,-26 -6,-10 -11,-21 -14,-35 -4,-14 -6,-32 -6,-53 1,-28 5,-50 13,-66 8,-17 20,-28 36,-35 15,-7 33,-10 54,-10 20,0 36,3 49,9 13,7 23,16 30,29 7,12 12,27 15,44 3,18 5,38 5,60l53 0zm200 535l52 0 0 -663 143 0 0 -54 -337 0 0 54 142 0 0 663zm313 -398l0 -265 103 0c9,-1 17,0 26,1 9,1 17,3 25,7 9,4 16,10 23,19 6,8 11,20 15,35 4,16 6,35 6,59 0,27 -3,52 -9,73 -6,22 -16,39 -30,52 -15,12 -34,19 -59,19l-100 0zm114 398c49,0 86,-17 111,-51 25,-34 37,-84 37,-148 0,-23 -1,-44 -4,-63 -3,-19 -8,-36 -16,-50 -7,-15 -17,-27 -29,-38 -13,-10 -29,-17 -48,-22l0 -2c18,-7 33,-15 44,-25 12,-11 20,-23 26,-38 6,-14 10,-30 12,-49 2,-18 3,-37 3,-59 0,-42 -5,-76 -16,-101 -10,-25 -25,-43 -46,-55 -21,-11 -46,-16 -77,-16l-163 0 0 717 166 0zm-114 -344l106 0c17,0 33,3 45,9 12,6 22,15 30,25 8,10 14,22 18,35 4,13 7,27 9,41 2,13 2,27 2,40 0,35 -4,62 -14,83 -9,21 -23,36 -42,44 -19,10 -42,14 -71,14l-83 0 0 -291zm494 -373l-185 717 52 0 46 -188 230 0 47 188 54 0 -182 -717 -62 0zm-71 475l99 -406 1 0 100 406 -200 0zm441 242l0 -635 1 -2 239 637 78 0 0 -717 -51 0 0 628 -2 2 -238 -630 -79 0 0 717 52 0zm494 -663l68 0c28,-1 53,2 73,7 19,6 35,14 48,27 12,12 22,28 29,49 6,20 11,45 13,75 3,30 4,66 4,107 0,58 -1,108 -3,148 -2,41 -6,74 -13,100 -6,26 -16,46 -28,60 -13,14 -29,24 -50,29 -21,5 -47,8 -78,8l-63 0 0 -610zm-52 663l133 0c36,0 65,-4 90,-14 24,-9 44,-23 59,-42 15,-19 27,-43 35,-71 8,-28 14,-62 17,-100 3,-38 5,-81 5,-128 0,-49 -1,-93 -4,-132 -2,-39 -7,-72 -14,-101 -7,-29 -17,-53 -31,-72 -13,-19 -31,-34 -53,-43 -22,-9 -50,-14 -82,-14l-155 0 0 717zm749 -535c0,-26 -2,-51 -6,-74 -4,-24 -12,-45 -22,-63 -11,-18 -26,-32 -45,-43 -20,-10 -44,-16 -75,-16 -32,0 -60,6 -84,18 -23,12 -42,31 -55,57 -13,26 -20,60 -20,101 0,14 1,27 2,40 1,12 4,25 8,36 4,12 10,25 19,37 8,12 20,26 35,40 14,14 33,30 56,47 21,15 40,29 57,42 16,13 31,26 43,39 12,14 21,29 27,46 6,17 10,37 10,61 0,42 -9,73 -26,95 -16,22 -42,32 -76,33 -21,-1 -38,-4 -51,-10 -14,-6 -25,-14 -33,-24 -7,-11 -13,-23 -17,-37 -3,-14 -6,-28 -7,-44 -1,-16 -1,-31 -1,-47l-54 0c-2,70 10,123 36,160 26,37 68,55 125,55 51,0 90,-15 116,-47 26,-32 39,-79 39,-144 0,-27 -2,-51 -8,-70 -5,-19 -13,-36 -22,-49 -10,-14 -20,-26 -33,-37 -12,-10 -26,-21 -40,-31 -14,-10 -28,-22 -42,-34 -14,-12 -26,-22 -37,-30 -12,-8 -22,-16 -31,-24 -9,-8 -17,-16 -23,-26 -6,-10 -11,-21 -15,-35 -3,-14 -5,-32 -5,-53 0,-28 5,-50 13,-66 8,-17 20,-28 35,-35 16,-7 34,-10 55,-10 20,0 36,3 49,9 13,7 23,16 30,29 7,12 12,27 15,44 3,18 5,38 5,60l53 0zm106 535l60 0 0 -75 -60 0 0 75zm343 14c23,0 43,-4 59,-12 17,-9 30,-20 41,-33 11,-14 20,-29 26,-45 7,-17 12,-33 15,-50 3,-16 5,-31 6,-45 1,-14 2,-26 1,-34l-55 0c0,23 -2,45 -5,65 -4,20 -9,37 -16,52 -8,15 -17,27 -29,36 -12,8 -26,12 -43,13 -24,0 -45,-5 -60,-15 -16,-10 -28,-24 -37,-43 -9,-18 -15,-41 -19,-67 -4,-26 -7,-55 -8,-88 -1,-33 -1,-68 -1,-106 0,-39 0,-74 1,-107 1,-32 4,-62 8,-88 4,-26 10,-48 19,-67 9,-19 21,-33 37,-42 15,-10 36,-15 60,-15 19,0 34,4 46,13 12,8 21,19 28,34 7,14 12,31 15,49 2,18 4,38 3,58l52 0c0,-11 0,-24 0,-38 -1,-14 -3,-29 -6,-45 -2,-15 -7,-31 -13,-45 -6,-15 -14,-28 -24,-41 -11,-11 -25,-21 -41,-28 -16,-7 -36,-11 -60,-11 -29,0 -54,5 -74,14 -20,10 -37,23 -50,40 -13,17 -23,37 -30,60 -7,23 -13,48 -16,76 -3,28 -5,57 -6,88 -1,31 -1,62 -1,95 0,32 0,64 1,95 1,30 3,60 6,87 3,28 9,53 16,77 7,23 17,43 30,60 13,17 30,30 50,39 20,9 45,14 74,14zm283 -372c0,-39 0,-74 1,-107 1,-32 3,-62 8,-88 3,-26 10,-48 19,-67 8,-19 21,-33 37,-42 15,-10 35,-15 60,-15 24,0 44,5 60,15 16,9 28,23 37,42 9,19 15,41 19,67 4,26 7,56 8,88 0,33 1,68 1,107 0,38 -1,73 -1,106 -1,33 -4,62 -8,88 -4,26 -10,49 -19,67 -9,19 -21,33 -37,43 -16,10 -36,15 -60,15 -25,0 -45,-5 -60,-15 -16,-10 -29,-24 -37,-43 -9,-18 -16,-41 -19,-67 -5,-26 -7,-55 -8,-88 -1,-33 -1,-68 -1,-106zm-52 0c0,32 0,64 1,95 1,30 3,60 6,87 3,28 9,53 16,77 7,23 17,43 30,60 13,17 30,30 50,39 20,9 45,14 74,14 29,0 54,-5 74,-14 20,-9 37,-22 50,-39 12,-17 23,-37 30,-60 7,-24 12,-49 16,-77 3,-27 5,-57 6,-87 0,-31 1,-63 1,-95 0,-33 -1,-64 -1,-95 -1,-31 -3,-60 -6,-88 -4,-28 -9,-53 -16,-76 -7,-23 -18,-43 -30,-60 -13,-17 -30,-30 -50,-40 -20,-9 -45,-14 -74,-14 -29,0 -54,5 -74,14 -20,10 -37,23 -50,40 -13,17 -23,37 -30,60 -7,23 -13,48 -16,76 -3,28 -5,57 -6,88 -1,31 -1,62 -1,95zm512 358l0 -655 1 0 177 655 60 0 172 -655 2 0 0 655 51 0 0 -717 -82 0 -170 648 -2 0 -173 -648 -88 0 0 717 52 0z"/>
   </g>
   <polygon fill="#F1AB27" points="4321,40 4403,295 4671,294 4454,451 4537,706 4321,548 4104,706 4188,451 3971,294 4239,295 "/>
   <polygon fill="#F1AB27" points="3269,40 3351,295 3619,294 3402,451 3485,706 3269,548 3053,706 3136,451 2919,294 3187,295 "/>
   <polygon fill="#F1AB27" points="2217,40 2300,295 2567,294 2350,451 2434,706 2217,548 2001,706 2084,451 1867,294 2135,295 "/>
   <polygon fill="#F1AB27" points="17888,40 17970,295 18238,294 18021,451 18105,706 17888,548 17672,706 17755,451 17538,294 17806,295 "/>
   <polygon fill="#F1AB27" points="16836,40 16919,295 17187,294 16970,451 17053,706 16836,548 16620,706 16703,451 16486,294 16754,295 "/>
   <polygon fill="#F1AB27" points="15785,40 15867,295 16135,294 15918,451 16001,706 15785,548 15568,706 15652,451 15435,294 15702,295 "/>
  </g>
  <polygon fill="#D92929" points="0,930 4493,930 4493,1559 0,1559 "/>
  <polygon fill="#F1AB27" points="4493,930 20106,930 20106,1559 4493,1559 "/>
  <path fill="#5B3824" fill-rule="nonzero" d="M8308 1343l0 8c0,42 -9,75 -28,98 -18,23 -44,34 -78,34 -38,0 -66,-17 -86,-51 -19,-35 -28,-86 -28,-154 0,-74 9,-129 28,-164 19,-35 48,-53 88,-53 31,0 55,12 73,34 18,23 27,54 27,94l-40 0c-2,-30 -8,-52 -18,-68 -10,-15 -25,-23 -43,-23 -25,0 -44,14 -55,41 -12,28 -17,73 -17,135 0,61 6,105 18,132 13,27 33,40 61,40 19,0 34,-8 44,-25 11,-17 16,-40 16,-70l0 -8 38 0z"/>
  <path id="1" fill="#5B3824" fill-rule="nonzero" d="M8360 1334l0 -264 42 0 0 260c0,49 4,80 13,95 8,14 24,21 47,21 23,0 38,-7 47,-22 9,-14 13,-46 13,-94l0 -260 42 0 0 264c0,35 -2,61 -5,76 -3,16 -9,29 -16,39 -9,11 -21,19 -34,25 -14,6 -30,9 -47,9 -17,0 -33,-3 -47,-9 -14,-6 -25,-14 -33,-25 -8,-10 -14,-22 -17,-37 -3,-16 -5,-42 -5,-78z"/>
  <path id="2" fill="#5B3824" fill-rule="nonzero" d="M8620 1368l39 0c2,26 8,46 18,59 11,12 26,19 47,19 17,0 32,-6 43,-19 11,-12 16,-28 16,-48 0,-18 -5,-34 -15,-49 -10,-15 -31,-34 -63,-58 -32,-23 -53,-43 -64,-60 -10,-17 -15,-36 -15,-59 0,-26 9,-47 26,-65 17,-17 38,-26 64,-26 30,0 54,10 71,29 18,19 27,46 28,81l-38 0c-2,-25 -8,-44 -18,-56 -9,-13 -23,-19 -41,-19 -17,0 -30,5 -40,15 -10,10 -15,24 -15,41 0,9 2,18 5,26 4,8 9,16 15,22 9,10 23,21 41,35 18,14 30,22 35,26 22,19 39,37 49,55 9,17 14,37 14,60 0,32 -9,58 -27,77 -18,20 -42,29 -72,29 -33,0 -57,-10 -75,-30 -18,-20 -28,-48 -28,-85z"/>
  <polygon id="3" fill="#5B3824" fill-rule="nonzero" points="8930,1475 8930,1105 8849,1105 8849,1070 9052,1070 9052,1105 8971,1105 8971,1475 "/>
  <path id="4" fill="#5B3824" fill-rule="nonzero" d="M9183 1483c-37,0 -65,-18 -84,-53 -18,-36 -28,-88 -28,-158 0,-69 10,-121 28,-157 19,-35 47,-53 84,-53 37,0 64,18 83,53 19,36 29,88 29,157 0,70 -10,122 -29,158 -19,35 -46,53 -83,53zm0 -383c-24,0 -41,13 -52,39 -11,26 -16,68 -16,124 0,64 5,111 16,139 11,29 28,43 52,43 23,0 40,-14 51,-41 11,-27 17,-71 17,-132 0,-59 -6,-103 -17,-131 -11,-28 -28,-41 -51,-41z"/>
  <path id="5" fill="#5B3824" fill-rule="nonzero" d="M9354 1475l0 -405 64 0 49 211c5,20 9,41 13,61 3,21 7,41 10,62 2,-19 5,-39 9,-59 4,-21 9,-42 14,-64l49 -211 65 0 0 405 -37 0 0 -376 -87 376 -26 0 -87 -376 0 376 -36 0z"/>
  <polygon id="6" fill="#5B3824" fill-rule="nonzero" points="9700,1475 9700,1070 9882,1070 9882,1107 9741,1107 9741,1247 9845,1247 9845,1284 9741,1284 9741,1438 9887,1438 9887,1475 "/>
  <path id="7" fill="#5B3824" fill-rule="nonzero" d="M9975 1247l36 0c27,0 48,-6 62,-18 14,-11 21,-29 21,-53 0,-23 -7,-41 -20,-53 -14,-11 -35,-17 -63,-17l-36 0 0 141zm-41 228l0 -405 74 0c44,0 76,9 98,26 22,18 33,45 33,80 0,25 -6,46 -17,63 -11,16 -27,28 -47,35l66 201 -45 0 -61 -193c-11,1 -20,1 -26,1 -6,1 -12,1 -17,1l-17 0 0 191 -41 0z"/>
  <path id="8" fill="#5B3824" fill-rule="nonzero" d="M10357 1256l35 0c27,0 48,-7 62,-19 13,-12 20,-31 20,-55 0,-25 -7,-44 -20,-56 -14,-12 -35,-19 -62,-19l-35 0 0 149zm-42 219l0 -405 68 0c44,0 77,9 98,27 22,19 33,46 33,83 0,37 -11,64 -33,83 -21,18 -54,27 -98,27l-26 0 0 185 -42 0z"/>
  <path id="9" fill="#5B3824" fill-rule="nonzero" d="M10606 1247l35 0c28,0 49,-6 63,-18 13,-11 20,-29 20,-53 0,-23 -6,-41 -20,-53 -14,-11 -35,-17 -63,-17l-35 0 0 141zm-42 228l0 -405 74 0c44,0 77,9 98,26 22,18 33,45 33,80 0,25 -6,46 -17,63 -11,16 -27,28 -47,35l66 201 -45 0 -61 -193c-11,1 -20,1 -26,1 -6,1 -12,1 -17,1l-16 0 0 191 -42 0z"/>
  <path id="10" fill="#5B3824" fill-rule="nonzero" d="M10925 1483c-37,0 -65,-18 -84,-53 -19,-36 -28,-88 -28,-158 0,-69 9,-121 28,-157 19,-35 47,-53 84,-53 36,0 64,18 83,53 19,36 29,88 29,157 0,70 -10,122 -29,158 -19,35 -47,53 -83,53zm0 -383c-24,0 -41,13 -52,39 -11,26 -16,68 -16,124 0,64 5,111 16,139 10,29 28,43 52,43 23,0 40,-14 51,-41 11,-27 16,-71 16,-132 0,-59 -5,-103 -16,-131 -11,-28 -28,-41 -51,-41z"/>
  <path id="11" fill="#5B3824" fill-rule="nonzero" d="M11195 1483c-37,0 -65,-18 -84,-53 -19,-36 -28,-88 -28,-158 0,-69 9,-121 28,-157 19,-35 47,-53 84,-53 36,0 64,18 83,53 19,36 29,88 29,157 0,70 -10,122 -29,158 -19,35 -47,53 -83,53zm0 -383c-24,0 -41,13 -52,39 -11,26 -16,68 -16,124 0,64 5,111 16,139 10,29 28,43 52,43 23,0 40,-14 51,-41 11,-27 16,-71 16,-132 0,-59 -5,-103 -16,-131 -11,-28 -28,-41 -51,-41z"/>
  <polygon id="12" fill="#5B3824" fill-rule="nonzero" points="11366,1475 11366,1070 11536,1070 11536,1107 11408,1107 11408,1247 11506,1247 11506,1284 11408,1284 11408,1475 "/>
  <g id="_478918136">
   <line fill="none" stroke="#728684" stroke-width="35.0598" stroke-dasharray="70.119634 35.059817" x1="29" y1="2128" x2="20054" y2= "2128" />
   <line fill="none" stroke="#728684" stroke-width="35.0598" stroke-dasharray="70.119634 35.059817" x1="29" y1="4757" x2="20054" y2= "4757" />
  </g>
  <line fill="none" stroke="#728684" stroke-width="35.0598" stroke-dasharray="70.119634 35.059817" x1="4488" y1="2298" x2="4488" y2= "4570" />
  <line fill="none" stroke="#728684" stroke-width="35.0598" stroke-dasharray="70.119634 35.059817" x1="10462" y1="2298" x2="10462" y2= "4570" />
 </g>
</svg>
