<?xml version="1.0" encoding="UTF-8"?>
<!DOCTYPE svg PUBLIC "-//W3C//DTD SVG 1.0//EN" "http://www.w3.org/TR/2001/REC-SVG-20010904/DTD/svg10.dtd">
<!-- Creator: CorelDRAW X6 -->
<svg xmlns="http://www.w3.org/2000/svg" xml:space="preserve" width="43.4983mm" height="23.9899mm" version="1.0" shape-rendering="geometricPrecision" text-rendering="geometricPrecision" image-rendering="optimizeQuality" fill-rule="evenodd" clip-rule="evenodd"
viewBox="0 0 3359 1853"
 xmlns:xlink="http://www.w3.org/1999/xlink">
 <g id="Layer_x0020_1">
  <metadata id="CorelCorpID_0Corel-Layer"/>
  <path fill="#D42426" d="M3023 15c-10,-4 -9,-7 -20,-3 -11,4 -17,1 -29,5 -16,6 -12,3 -29,5 -12,1 -14,5 -27,6 -10,1 -18,3 -27,5l-26 5c-22,-1 -20,19 -32,32 -13,-14 9,-34 -40,-20 -8,2 -12,12 -15,21l-8 -10c-18,-1 -37,9 -56,10 -16,0 -9,1 -20,5 -9,3 -30,2 -42,5 -11,3 -27,3 -39,7 -33,10 -52,0 -87,26 -11,8 -4,7 -10,15 -4,5 -10,8 -12,0 0,-1 3,-17 3,-21 -12,0 -22,3 -31,7l0 27c0,24 -3,16 10,29 -2,12 -7,14 -12,26 -13,-4 -18,-21 -15,-36 2,-9 2,-16 3,-24 2,-10 14,-22 -3,-23 -10,0 -2,0 -7,2 -14,5 -34,1 -42,15l-7 -4c-10,-3 -10,5 -13,13 -4,10 -4,6 -6,18 -4,18 -13,21 6,29 0,12 2,24 -10,28 -1,-8 1,-14 -2,-18 -14,1 -3,0 -12,11 -6,7 -5,1 -10,12 -4,9 -14,19 -13,29l19 1c11,2 15,1 23,-3 14,-7 24,0 43,-8 9,-4 12,-1 22,-3 11,-1 10,-5 20,-6 9,-1 17,0 25,-2 10,-2 8,-5 21,-6 4,0 7,0 10,-1 14,-4 3,-6 34,-6 19,0 27,-4 44,-7 10,-2 8,-5 18,-6 11,-1 20,0 31,-3l17 -3c11,-3 7,-3 13,-13 17,15 8,7 31,6 14,0 26,-1 41,-2 14,-25 19,-1 33,-25l11 -20c5,-11 4,-12 14,-17 1,11 -2,16 -4,24 -4,12 -8,11 -6,23 19,7 34,-4 46,-5 17,-2 11,2 27,-5 11,-4 14,0 26,-5 14,-6 17,-2 27,-5 7,-3 7,-9 9,-18 4,3 5,3 9,6l3 2c10,8 26,6 37,1 14,-6 27,-2 42,-5 7,-1 7,-4 14,-4 11,0 5,5 8,16 6,21 7,-4 5,33 -1,10 4,17 7,24 2,7 0,18 2,27 2,9 6,10 6,23 1,13 2,39 10,48 3,4 4,3 8,6 14,11 3,6 30,7 16,0 11,8 24,8 11,0 23,-7 30,-6 12,3 12,9 28,2l-13 -85c-2,-27 -14,-20 -15,-34 -1,-15 16,-13 -7,-30 1,-12 7,-47 -15,-38 -13,5 -5,14 -8,23l-24 -2c5,-28 34,-24 44,-29 1,-8 -2,-43 -12,-46 -11,-3 -11,4 -15,8 -8,10 -8,4 -9,3 -3,-4 -2,2 -1,-4 2,-14 44,-27 16,-55 -25,-25 -62,-37 -97,-27l-20 9c0,0 -1,1 -1,1 0,0 -1,1 -1,1z"/>
  <path fill="#D42426" d="M2099 197c0,17 8,38 -1,48 -16,-11 -5,-19 -13,-38 -7,-16 -6,-26 -28,-23 -5,7 -12,11 -20,16 -22,13 -1,-12 -26,-7 -6,1 -26,5 -31,7 -12,6 -20,3 -33,5 -13,1 -19,5 -32,6 -16,1 -20,5 -30,7 -16,3 -20,-3 -31,7 -3,3 -6,7 -8,10 -6,9 -1,8 -9,11 -7,-17 1,-28 -31,-16 -11,4 -12,5 -15,16l-10 -12 -111 19c-19,2 -18,10 -34,13 -17,2 -26,6 -36,8 -19,3 -36,5 -53,15 -19,11 -10,12 -20,24 -5,6 -9,9 -16,10 2,-14 12,-13 8,-33 -12,-2 -28,1 -38,7 2,14 0,26 0,40 0,12 9,9 17,15 -4,10 1,0 -4,7l-2 2c-1,1 -3,3 -3,4l-10 13 -11 -17c-10,-20 9,-42 8,-64 -13,-3 -39,5 -56,7 -10,1 -10,0 -20,2l-17 52c0,4 1,6 2,12 -18,8 -11,35 -29,51 -6,5 -3,-3 -6,9 6,3 19,3 26,3 9,0 7,-5 18,-6 8,-1 17,1 26,-1 10,-3 5,-6 21,-6 23,0 24,-7 47,-7 16,0 12,0 22,-5 10,-4 13,-1 24,-3 13,-2 9,-2 13,-13 14,1 17,5 29,5 11,0 40,-12 49,-13l55 -7c7,-4 4,-4 9,-10 13,6 55,5 67,-1 44,-20 24,-2 46,-25 0,0 1,1 1,1l6 13c16,0 18,-3 33,-5 11,-1 22,0 33,-5 14,-6 19,0 32,-6 15,-7 22,-1 35,-6 7,-6 3,-13 8,-23 9,13 2,18 26,18 10,0 11,-2 18,-5 14,-6 25,0 44,-7 10,-4 12,-2 23,-4 10,-2 6,-5 21,-6 12,-1 13,0 18,-10 -10,-6 -21,-4 -32,-3 2,-9 9,-15 16,-22 3,-3 6,-5 8,-10 4,-7 1,-5 6,-12 17,6 18,15 29,20 14,-9 12,-25 34,-19l1 33c46,4 36,5 48,-34 16,-5 5,7 19,-17l5 -8c7,11 -3,14 1,32 -7,1 -8,1 -14,4 3,15 -3,19 17,18 22,-1 8,-11 42,-7 7,1 19,-4 24,-6 10,-4 10,-4 14,-15 1,-3 2,-7 3,-10 3,-7 2,-3 6,-10 17,-37 13,-64 32,-86 7,-9 14,-3 16,-14 -10,-6 -57,8 -70,8 -18,1 -55,13 -73,14 -21,1 -52,12 -73,14 -30,3 -21,4 -36,7 -16,2 -24,1 -24,22z"/>
  <path fill="#D42426" d="M1111 421c-17,0 -8,-24 -18,-46 -3,-7 1,-3 -5,-7 -15,-8 -37,4 -58,5 -10,1 -15,6 -25,8 -13,2 -18,-2 -33,3 -12,4 -17,2 -29,5 -10,2 -12,7 -27,8 -18,1 -23,7 -32,20 -4,7 -1,6 -5,11 -4,-5 -5,-19 -9,-24 -24,0 -33,4 -47,16 -16,-12 -41,1 -64,3 -13,1 -20,5 -33,7 -14,2 -20,1 -35,6 -13,4 -22,0 -35,5 -21,9 -30,-3 -66,15 -13,6 -6,-1 -11,9 -4,7 -1,8 -11,9 -7,0 -4,-6 -6,-14l-8 3c0,0 -1,0 -1,0 -9,0 0,-4 -11,0 -21,9 -18,7 -21,24 -1,8 -8,27 -5,36l9 9 -6 20c-16,-7 -15,-28 -12,-44 2,-14 -1,-2 4,-9 3,-5 5,-4 2,-23 -8,-2 -47,3 -57,16l-3 4 -7 -7c-18,15 -20,56 -27,64 -7,7 -7,0 -11,11l-7 18c-4,9 -9,12 -15,18 -7,6 -4,-4 -5,9 15,6 41,2 54,-2 9,-2 17,-1 26,-3 13,-3 8,-6 25,-6 18,0 11,-2 24,-6 11,-3 17,1 28,-3 13,-5 9,-4 24,-5 22,-2 8,-15 30,-10 30,7 22,-3 44,-5 9,-1 7,1 17,-3l59 -10c17,-2 6,1 15,-9 53,12 82,-12 86,-13 1,0 9,0 14,-1l12 -41c13,-17 17,-2 18,-35 0,-9 2,-22 13,-24 2,14 -6,43 -11,55 -4,11 -30,34 -20,44 8,5 25,3 33,0 15,-6 19,-3 34,-6 8,-2 5,-3 13,-5 5,-1 11,-1 18,-2 11,-1 6,-3 15,-6 23,-7 22,8 28,-21 9,6 13,13 27,14 21,0 18,-7 36,-7 21,0 18,0 35,-5 16,-5 23,5 32,-11l-15 -14c12,-20 5,-15 10,-33 14,-4 23,4 31,11 6,-4 15,-11 23,-10 6,10 1,19 5,31 9,3 26,3 33,-4 3,-4 7,-9 9,-13 3,-5 1,-1 4,-8l4 -10c11,8 1,14 16,24 25,0 14,-3 28,-7 16,-5 15,9 60,-7 11,-4 23,-37 27,-47 11,-29 0,-25 11,-43l12 -23c6,-10 6,0 5,-16 -7,1 -37,5 -41,7 -25,9 -20,3 -39,7l-59 11c-25,6 -76,11 -99,19 -17,5 -23,-2 -27,20 -2,10 1,32 1,45z"/>
  <path fill="#D42426" d="M3279 1068c-15,-19 8,-53 -10,-48 -6,2 -8,7 -11,13 -7,14 -20,28 -23,44 -4,19 -5,7 -21,12 -2,10 -1,5 2,11 4,8 3,3 4,14 2,22 12,27 15,56 1,5 15,42 3,43 -5,1 -1,-1 -8,-4 -12,-6 -15,1 -23,4 -8,3 -15,0 -24,3 -10,4 -11,5 -24,5 -27,2 -29,7 -43,8l-24 5c-8,3 -18,2 -28,2 -3,10 -6,8 -11,15 -5,6 -3,7 -11,11 -5,-25 -21,-19 -40,-12 -12,4 -4,2 -13,9 -9,-7 -5,-10 -20,-4 -12,4 -17,1 -39,8 -7,2 -7,1 -14,2 -14,3 -3,6 -23,6 -4,0 -25,1 -29,2 -8,1 -14,6 -25,6 -28,1 -22,14 -49,14 -12,0 -20,0 -27,7l-28 16c-8,7 -1,10 -15,17 -6,3 -4,1 -8,6 -7,-13 25,-33 -19,-31 -7,13 -11,23 -11,40 0,20 14,6 14,22 0,6 -3,10 -6,14 -5,7 -3,7 -14,7 -27,-44 24,-78 -9,-78 -11,0 -14,5 -23,6 -16,2 -14,-3 -22,10 -10,-5 -4,-6 -16,-4 -12,32 -5,9 -16,30l-1 3c0,0 -1,1 -1,1l-4 10c0,3 0,7 -1,10 -3,32 -26,24 -21,55 16,1 25,-4 41,-5 24,-2 4,-4 42,-7 8,-1 13,-4 19,-5 20,-5 45,-6 65,-10 9,-2 8,-5 18,-6 10,-1 13,1 23,-2 21,-7 31,-3 44,-7 16,-5 29,-3 42,-8 16,-6 27,1 38,-13 14,4 8,4 25,2 11,-1 16,-4 27,-6 12,-2 16,2 27,-4 8,-4 13,-4 23,-6 3,-23 9,-27 19,-35l10 -17c3,-10 -1,-14 4,-25 9,1 8,3 6,12 -4,21 -18,48 -20,59 9,1 24,1 36,0 6,-1 9,-3 16,-5 7,-2 11,-1 18,-2 13,-2 19,-5 34,-6 18,-1 19,-8 30,-10 8,-1 11,4 30,-2 26,-7 58,-4 81,-19 8,-5 8,-3 16,-7 -1,-8 -1,-13 2,-20l3 26c9,3 21,-3 29,-7 12,-6 15,-10 22,-21 7,-12 22,-23 25,-36 2,-8 -3,-10 -6,-14 5,-5 11,-9 5,-20 -6,-12 -13,1 -19,-9 -6,-9 15,-21 14,-35 -1,-16 -6,-28 -8,-46 -2,-14 -4,-10 -6,-20 -3,-18 3,-25 -10,-28 -1,0 -6,0 -8,1 -8,3 -5,6 -14,9 -6,-12 3,-13 7,-24 9,-21 12,-13 16,-23 4,-11 -3,-26 -8,-35 -14,3 -25,20 -24,35 1,15 6,12 -9,15 -8,2 -3,-5 -7,6 -2,7 0,4 -4,11z"/>
  <path fill="#D42426" d="M1322 1595c0,11 9,20 -6,30 -7,-9 -2,-20 -10,-39 -11,-25 -3,-19 -42,-19l-42 12c-13,6 -31,-1 -50,6 -9,4 -15,1 -23,4 -12,4 -3,5 -21,5 -17,0 -25,9 -35,21 -12,-4 -12,-13 -28,-13 -24,0 -19,21 -35,11 -11,-6 -8,-7 -20,-1 -11,5 -11,2 -23,3l-33 8c-11,3 -5,-3 -17,0 -12,3 1,1 -9,5 -8,3 -17,0 -25,1 -12,2 -5,6 -20,7 -10,0 -15,-1 -25,2 -23,6 -37,4 -45,9 -8,4 -8,7 -17,10 -23,7 -16,7 -29,25 -6,7 -1,1 -4,9 -2,5 -1,6 -6,9 -6,-8 -3,-9 1,-18l5 -23c-12,0 -21,-3 -28,7l-5 13c0,0 0,1 -1,2 -6,-11 6,-11 -7,-14 -8,-2 -20,0 -25,2 -16,7 -38,4 -42,7 -8,8 -4,8 -6,19 -8,34 -22,26 -21,56 6,2 6,1 14,1l-1 19c-2,0 -5,4 -7,-3 -2,-6 0,-2 0,-5l0 -3c-4,-18 -19,14 -21,33 16,4 37,-2 52,-6 10,-3 18,-2 28,-3l52 -13c11,-2 18,1 29,-2 33,-12 54,-9 82,-14 22,-4 43,-12 65,-13 14,-1 12,-6 26,-7 32,-2 15,-1 41,-6 10,-2 19,0 28,-3 7,-3 4,-4 10,-5 4,-1 9,1 15,0 15,-28 6,-34 20,-49 9,-10 11,-4 12,-22 0,-11 3,-21 11,-21 7,9 0,18 -3,27 -3,11 0,8 -5,19 -14,27 -29,41 -1,40 15,-1 23,-6 38,-7 6,-1 14,-1 21,-3 9,-3 27,-5 38,-9 14,-6 20,-5 24,-22l6 12 56 -11c10,-3 20,0 30,-3 9,-3 2,-2 10,-5 7,-3 8,0 14,-3 10,-5 2,-18 9,-25 7,-7 19,4 22,6 12,7 19,-5 22,-7 12,-10 12,4 11,14 19,1 39,4 50,-14 7,-12 2,-4 14,-6 1,-9 1,-13 7,-18 10,7 2,9 4,25 34,0 46,-7 60,-8 14,-1 27,0 37,-10 7,-7 19,-44 19,-55 0,-12 1,-11 6,-21 5,-10 15,-20 14,-32 -13,-1 -18,5 -34,7 -14,1 -22,7 -37,8 -25,0 -19,4 -36,6 -7,1 -15,0 -21,1 -8,2 -6,5 -16,6 -6,1 -13,0 -19,1 -6,1 -11,5 -17,6 -7,1 -13,0 -21,2 -8,2 -10,4 -17,5 -14,2 -25,0 -35,8 -5,4 -10,26 -10,35z"/>
  <path fill="#D42426" d="M2229 1392l-38 7c-7,2 -4,2 -10,4 -16,6 -36,-2 -52,4 -10,3 3,3 -21,6 -15,2 -7,6 -22,7 -27,1 -8,-3 -28,13 -6,5 -3,0 -8,7 -4,-2 1,1 -5,-3 -18,-16 -23,-14 -44,7 -5,-3 -2,-1 -4,-3l-5 -5c-8,1 -14,3 -20,5 -9,2 -15,1 -24,3 -8,1 -10,4 -19,5 -18,2 -10,-2 -22,7 -9,-15 -15,0 -30,1 -39,2 -16,6 -47,7 -16,0 -12,4 -23,6 -10,2 -15,-1 -24,3 -6,2 -11,6 -18,9 -12,5 -6,2 -17,14l-4 5c-5,12 6,9 -16,20 -2,1 1,0 -5,2 3,-12 8,-20 6,-36 -17,-3 -35,-1 -38,20 0,0 -1,-2 -1,-1 0,0 -1,-1 -1,-1 -9,-8 3,1 -3,-2 -6,-4 -17,-3 -24,-1l-29 7c-3,12 -7,13 -9,24 -2,10 -3,20 -14,23 0,-12 -1,-8 3,-18 1,-2 6,-9 2,-17l-4 3c-3,3 -2,2 -5,4 -8,5 -2,-3 -10,6 -6,7 -7,16 -7,28 22,13 13,2 12,33 -12,-7 2,-8 -9,-18 -1,1 -21,29 -15,43 9,0 18,-2 27,-3 16,-1 12,-5 25,-6 12,-2 16,0 28,-3 13,-4 16,-2 29,-5 12,-2 13,-5 25,-6 42,-2 26,-7 56,-8l55 -11c9,-2 17,-1 28,-3 10,-2 7,-4 25,-6 22,-2 11,-1 26,-8 9,-4 4,3 26,0l55 -10c9,-3 19,-5 29,-5 2,-12 0,-11 4,-18 0,0 1,-1 1,-1l2 -3c1,-3 1,-14 15,-19 0,12 -9,26 -12,35 47,3 14,-2 57,-6 22,-2 14,-4 27,-7l116 -18c12,-3 15,-3 29,-5 7,-11 12,-22 27,-11 6,-19 2,-10 15,-20 23,-17 8,-87 -15,-87 -22,0 -10,4 -24,11 -16,7 -11,-2 -23,-2z"/>
  <path fill="#D42426" d="M146 599c-11,4 -11,-13 -13,-23 -2,-13 -6,-20 -9,-31 -18,-2 -23,-2 -41,3 -21,6 -29,3 -50,18 -11,8 -32,25 -32,40 0,50 8,22 8,69 0,14 3,14 5,26 3,17 -1,10 11,20 -8,29 -1,34 3,50 2,9 0,18 3,28 10,33 -1,39 10,52 20,23 29,14 46,17 18,3 6,13 20,13 9,0 17,-8 25,-10 12,7 9,11 28,7 6,-40 -5,-49 -5,-53 -2,-9 0,-20 -2,-27l-6 -23c-4,-12 -12,-8 -13,-17 3,-10 5,-6 5,-22 0,0 -1,-1 -2,-1l-10 -5c-3,-21 4,-7 5,-21 1,-11 -7,-4 -7,-42 0,-8 14,-11 20,-16 -7,-11 -8,-8 -20,-12 -1,-14 0,-10 7,-19 10,-13 10,-16 30,-4 18,11 29,-15 41,-3 5,5 -1,3 -4,14 8,13 22,14 36,11 18,-3 12,-17 20,-28 25,6 -1,22 26,22 18,0 9,-10 30,-8 31,3 18,1 34,-4 11,-3 10,4 22,-18l22 -58c4,-18 2,-15 9,-31 4,-9 4,-7 8,-13 8,-14 -7,-7 -20,-6 -9,0 -12,0 -20,3 -7,2 -9,3 -16,4 -9,1 -10,0 -18,2l-136 27c-52,4 -50,10 -51,29 0,12 3,31 -2,40z"/>
  <path fill="#D42426" d="M3086 333c0,7 0,16 0,22 1,9 3,10 5,17 2,8 1,13 1,21 1,11 4,11 6,18 4,16 -4,10 6,38 5,13 3,29 3,44 6,4 6,4 13,6 0,20 -8,6 -6,22 1,6 5,16 6,24 1,11 -1,18 2,27 5,13 4,7 5,24 1,15 4,12 6,23 2,9 0,20 2,27 3,11 5,9 5,24 0,38 7,24 8,51 1,16 1,12 5,24 3,9 1,19 3,26 4,12 6,2 6,25 0,11 0,16 7,22 17,16 21,13 42,16 16,2 11,4 22,9 13,-2 19,-10 34,-7 8,2 40,17 22,-33 -3,-8 -6,-43 -11,-66 -2,-9 -5,-7 -6,-19 -2,-20 -4,-17 -11,-44 -3,-14 2,-6 2,-27 0,-5 -4,-8 -5,-16 -1,-10 0,-12 -3,-22 -5,-17 -5,-24 -6,-44 0,-6 -14,-77 -16,-81 -23,-2 -28,14 -33,29 -23,6 -14,0 -24,-12 -10,1 -14,6 -19,20 -11,0 -12,3 -13,-6 -3,-33 25,-11 21,-41 -23,6 -32,-16 -7,-25 12,-4 9,-7 22,-3 4,24 -2,19 -7,30 26,6 30,-8 35,-31 3,-11 8,-14 7,-29 -1,-27 -14,1 -14,-29 0,-10 6,-7 5,-22 -1,-10 -5,-13 -8,-23 -27,6 -24,-6 -47,-3 -23,3 -23,17 -39,-7l-31 2z"/>
  <path fill="#D42426" d="M71 1045c4,7 4,3 10,9 -2,17 -3,6 -3,31l22 132c1,15 7,11 7,31 0,17 6,19 7,34 1,16 0,18 5,33 7,21 -4,26 12,28 -8,7 -6,3 -4,12 2,8 -3,29 28,35 15,3 15,-4 32,6 13,7 21,1 33,-1 20,-3 17,3 33,4 15,-18 5,-10 1,-28 -2,-8 1,-17 -1,-25 -2,-10 -5,-8 -6,-21 -2,-48 -4,-18 -7,-46 -2,-17 -15,-36 -14,-63 1,-42 -3,-30 -7,-46 -2,-9 0,-16 -2,-24 -2,-6 -2,-1 -4,-9 -6,-19 6,-16 -7,-47 -10,-24 -5,-33 -14,-52 -5,1 -5,1 -6,2 -16,9 -10,27 -31,27 -15,0 0,-10 -18,-14 -11,6 -4,4 -10,13 -4,7 -8,7 -15,5 -7,-33 31,-32 20,-53 -6,4 -13,18 -20,-1 3,-4 11,-9 18,-10 12,-1 11,8 11,20 38,1 37,-49 35,-58 -3,-14 -8,0 -8,-23l-1 -42c-9,-1 -18,0 -26,-2 -12,-3 -7,-8 -20,-7 -17,1 -30,19 -38,-6 -56,0 -35,-6 -32,34 1,11 4,14 6,24 2,9 0,17 2,24 3,11 5,10 6,23 1,33 7,8 7,49z"/>
  <path fill="#D42426" d="M249 1610c-1,8 -1,12 -6,18 -11,-14 -2,-26 -2,-41 0,-17 -10,-11 -16,-3 -6,9 -6,14 -14,22 -8,7 -14,8 -18,18 -10,23 -3,5 -18,13 -1,11 6,26 8,37 2,17 1,27 6,43 5,14 0,29 5,42 4,10 4,8 12,13 10,7 3,5 9,16 9,-2 22,-1 21,11 -1,7 -11,13 -14,25 11,16 12,-1 24,18 5,8 0,4 12,8 28,8 21,4 33,1 7,-2 39,5 45,-13 4,-12 -1,-5 8,-16 7,-8 3,-9 10,-15 -11,-11 -8,-4 -11,-27 -2,-14 -2,-4 -5,-15 -2,-6 -1,-10 -3,-17 -7,-2 -12,-2 -19,-4 -4,-14 3,-10 -5,-28 -5,-12 -1,-19 -3,-32 -2,-15 -7,-3 -7,-27 0,-53 -46,3 -29,-39 6,-14 3,-8 14,-19 4,-4 3,-3 6,-8l-6 -28c-16,-3 -25,20 -25,24 -1,9 4,14 5,18 0,8 -9,5 -17,7z"/>
  <path fill="#D42426" d="M2321 1376c-20,13 -7,45 -10,55 -3,13 -11,15 3,19 17,6 15,11 22,11 9,1 27,-24 34,-5 1,3 0,3 1,5 2,4 0,5 7,5 22,0 37,0 43,-20 14,0 10,4 14,-6 4,-11 -2,-5 7,-14 8,8 1,7 1,18 0,14 14,9 39,6 23,-3 8,-7 49,-7 3,-8 4,-6 7,-13l15 -48c0,-8 -4,-8 -7,-13 21,-7 4,1 23,-28 5,-8 5,-2 4,-12 -10,-2 -3,2 -32,3 -15,1 -15,6 -31,7 -6,0 -12,0 -16,2 -9,3 -4,4 -15,5 -13,2 -14,-1 -29,5 -14,5 -21,1 -33,5 -7,2 -4,3 -13,5 -7,1 -12,0 -19,1 -14,2 -12,6 -32,6 -18,0 -16,7 -33,7z"/>
  <path fill="#D42426" d="M361 1742c0,25 -3,40 -4,62 5,3 6,4 13,8 11,6 13,13 26,1 7,-6 8,-7 14,-5 6,23 -8,20 26,17 23,-2 26,3 30,-19 18,-4 5,8 19,-12 1,-1 5,-6 6,-7 -3,20 -8,26 14,25 8,-1 16,0 24,-1 8,-1 12,-5 19,-6 8,-1 16,0 22,-2 18,-5 11,-17 18,-32 3,-7 1,1 4,-7 2,-5 1,-5 3,-10 4,-11 5,-10 3,-23 18,-24 2,-8 12,-25 4,-7 3,-4 6,-12 1,-2 2,-6 2,-6 2,-15 -12,-4 -13,-4 -11,5 -21,1 -33,7 -12,7 -2,4 -11,9 -10,4 -18,-1 -34,6 -12,5 -18,0 -34,6 -13,6 -21,0 -34,6 -15,7 -20,2 -35,5 -17,3 1,2 -33,7 -10,1 -8,2 -16,5 -8,3 -9,1 -13,8z"/>
  <path fill="#D42426" d="M3208 1018l-2 32c13,0 35,-7 38,-17 2,-6 0,-11 -2,-15 9,-2 9,-4 15,-9 5,-5 10,-6 8,-16l-17 1 -3 -10c5,-9 21,-17 35,-16 2,17 -8,14 -2,28 10,-2 20,-2 28,-22 4,-9 5,-35 5,-47 -4,-4 -7,-4 -11,-8 1,-26 8,-25 1,-56 -13,-5 -10,0 -23,-4 -38,-12 -29,3 -54,3 -15,0 -9,-8 -17,-15 -12,1 -4,3 -15,2 -9,-1 -5,-4 -18,0 -2,11 1,11 3,20 2,8 0,17 1,25 1,8 4,12 5,19 2,8 0,17 1,25 2,12 4,7 6,18 2,9 0,16 1,25 1,13 4,7 6,18 3,20 -4,7 9,18z"/>
  <path fill="#D42426" d="M136 1419c0,12 5,10 7,40 1,12 2,10 5,20 2,8 2,13 2,23l11 63c4,10 4,8 14,10 -9,20 -17,21 -1,34 4,-1 15,-8 19,-10 15,-10 12,-10 12,-16 -2,-13 -8,-4 9,-12 9,-4 11,-8 15,-16 -11,-7 -20,0 -25,-15 9,-7 11,-6 21,-10 14,-6 4,-8 22,-6 -1,12 -10,19 -3,30 2,0 6,-1 9,-2 9,-4 7,-4 14,-22 9,-22 6,15 6,-36 0,-12 3,5 -7,-11 -15,-23 1,-8 1,-47 0,-18 -19,-16 -24,-17 -6,-2 -4,-2 -11,-4 -22,-6 -4,5 -48,5 -9,0 -6,-2 -11,-8 -8,-8 -5,-2 -36,-6l0 14z"/>
  <path fill="#E31F24" fill-rule="nonzero" d="M1061 805l26 -5c58,-11 68,22 84,106 15,84 17,117 -41,128l-26 5 -43 -234zm112 612l-50 -276 61 -11c98,-18 185,-82 165,-190l-24 -130c-23,-123 -113,-138 -246,-114l-204 37 130 714 167 -30zm366 -360l-29 -323 2 0 87 313 -60 11zm-143 -419l9 736 140 -26 -5 -180 90 -16 51 172 166 -30 -223 -697 -229 42zm649 620l-130 -714 -167 30 130 714 167 -30zm41 -8l172 -31c210,-38 235,-126 210,-261l-47 -255c-39,-214 -108,-232 -294,-198l-172 31 130 714zm55 -642c84,-15 92,5 110,100l54 294c12,68 11,101 -70,115l-93 -510z"/>
 </g>
</svg>
