<?xml version="1.0" encoding="UTF-8"?>
<!DOCTYPE svg PUBLIC "-//W3C//DTD SVG 1.0//EN" "http://www.w3.org/TR/2001/REC-SVG-20010904/DTD/svg10.dtd">
<!-- Creator: CorelDRAW X6 -->
<svg xmlns="http://www.w3.org/2000/svg" xml:space="preserve" width="23.5303mm" height="9.984mm" version="1.0" shape-rendering="geometricPrecision" text-rendering="geometricPrecision" image-rendering="optimizeQuality" fill-rule="evenodd" clip-rule="evenodd"
viewBox="0 0 407 173"
 xmlns:xlink="http://www.w3.org/1999/xlink">
 <g id="Layer_x0020_1">
  <metadata id="CorelCorpID_0Corel-Layer"/>
  <path fill="none" stroke="#F1AB27" stroke-width="6.09903" d="M36 3l334 0c18,0 33,15 33,33l0 100c0,18 -15,33 -33,33l-334 0c-18,0 -33,-15 -33,-33l0 -100c0,-18 15,-33 33,-33z"/>
  <path fill="#F1AB27" d="M93 82l223 0c6,0 11,5 11,11l0 50c0,6 -5,11 -11,11l-223 0c-6,0 -11,-5 -11,-11l0 -50c0,-6 5,-11 11,-11z"/>
 </g>
</svg>
