<?xml version="1.0" encoding="UTF-8"?>
<!DOCTYPE svg PUBLIC "-//W3C//DTD SVG 1.0//EN" "http://www.w3.org/TR/2001/REC-SVG-20010904/DTD/svg10.dtd">
<!-- Creator: CorelDRAW X6 -->
<svg xmlns="http://www.w3.org/2000/svg" xml:space="preserve" width="27.6576mm" height="4.5862mm" version="1.0" shape-rendering="geometricPrecision" text-rendering="geometricPrecision" image-rendering="optimizeQuality" fill-rule="evenodd" clip-rule="evenodd"
viewBox="0 0 1397 232"
 xmlns:xlink="http://www.w3.org/1999/xlink">
 <g id="Layer_x0020_1">
  <metadata id="CorelCorpID_0Corel-Layer"/>
  <path fill="none" fill-rule="nonzero" stroke="#F2AB26" stroke-width="17.8192" d="M52 9l1294 0c24,0 43,19 43,43l0 128c0,24 -19,43 -43,43l-1294 0c-24,0 -43,-19 -43,-43l0 -128c0,-24 19,-43 43,-43z"/>
  <path fill="#F2AB26" d="M55 27l185 0c15,0 28,12 28,28l0 123c0,15 -12,28 -28,28l-185 0c-15,0 -28,-12 -28,-28l0 -123c0,-15 12,-28 28,-28z"/>
  <path fill="#E31F24" fill-rule="nonzero" d="M83 115l-13 26c0,0 29,14 43,53 5,14 45,-85 129,-102 0,0 -8,-38 -2,-44 0,0 -60,22 -122,112 0,0 -19,-35 -34,-45z"/>
 </g>
</svg>
