<?xml version="1.0" encoding="UTF-8"?>
<!DOCTYPE svg PUBLIC "-//W3C//DTD SVG 1.0//EN" "http://www.w3.org/TR/2001/REC-SVG-20010904/DTD/svg10.dtd">
<!-- Creator: CorelDRAW X6 -->
<svg xmlns="http://www.w3.org/2000/svg" xml:space="preserve" width="4.7624mm" height="3.5278mm" version="1.0" shape-rendering="geometricPrecision" text-rendering="geometricPrecision" image-rendering="optimizeQuality" fill-rule="evenodd" clip-rule="evenodd"
viewBox="0 0 41 30"
 xmlns:xlink="http://www.w3.org/1999/xlink">
 <g id="Layer_x0020_1">
  <metadata id="CorelCorpID_0Corel-Layer"/>
  <path fill="#F2AB26" d="M5 0l31 0c3,0 5,2 5,5l0 21c0,3 -2,5 -5,5l-31 0c-3,0 -5,-2 -5,-5l0 -21c0,-3 2,-5 5,-5z"/>
  <path fill="#E31F24" fill-rule="nonzero" d="M9 15l-2 4c0,0 5,2 7,9 1,2 8,-14 22,-17 0,0 -1,-6 0,-7 0,0 -10,4 -21,19 0,0 -3,-6 -6,-8z"/>
 </g>
</svg>
